M48
; DRILL file {KiCad (6.0.5)} date Sun Jul 31 11:40:53 2022
; FORMAT={-:-/ absolute / metric / decimal}
; #@! TF.CreationDate,2022-07-31T11:40:53+07:00
; #@! TF.GenerationSoftware,Kicad,Pcbnew,(6.0.5)
; #@! TF.FileFunction,MixedPlating,1,2
FMAT,2
METRIC
; #@! TA.AperFunction,Plated,PTH,ViaDrill
T1C0.400
; #@! TA.AperFunction,Plated,PTH,ComponentDrill
T2C0.400
; #@! TA.AperFunction,Plated,PTH,ComponentDrill
T3C0.900
; #@! TA.AperFunction,Plated,PTH,ComponentDrill
T4C1.000
; #@! TA.AperFunction,Plated,PTH,ComponentDrill
T5C1.200
; #@! TA.AperFunction,NonPlated,NPTH,ComponentDrill
T6C0.800
; #@! TA.AperFunction,NonPlated,NPTH,ComponentDrill
T7C1.700
; #@! TA.AperFunction,NonPlated,NPTH,ComponentDrill
T8C3.400
%
G90
G05
T1
X103.941Y-58.294
X104.94Y-58.286
X105.934Y-58.327
X106.42Y-52.321
X106.934Y-58.293
X107.315Y-65.024
X107.442Y-52.324
X108.458Y-65.024
X109.601Y-65.024
X110.744Y-65.024
X118.491Y-69.469
T2
X25.43Y-46.08
X25.43Y-63.08
X25.43Y-80.08
X28.73Y-46.08
X28.73Y-63.08
X28.73Y-80.08
X43.43Y-34.08
X43.43Y-51.054
X43.43Y-68.072
X46.73Y-34.08
X46.73Y-51.054
X46.73Y-68.072
X61.43Y-27.08
X61.43Y-44.196
X61.43Y-61.214
X64.73Y-27.08
X64.73Y-44.196
X64.73Y-61.214
X79.43Y-32.58
X79.43Y-49.53
X79.43Y-66.548
X82.73Y-32.58
X82.73Y-49.53
X82.73Y-66.548
X90.506Y-77.873
X93.694Y-78.727
X97.41Y-52.07
X97.41Y-69.088
X97.43Y-35.08
X100.71Y-52.07
X100.71Y-69.088
X100.73Y-35.08
X110.431Y-85.625
X113.289Y-87.275
X117.056Y-44.196
X117.056Y-46.736
X117.056Y-49.276
X117.056Y-51.816
X117.056Y-54.356
X117.056Y-56.896
X117.056Y-59.436
X118.58Y-44.196
X118.58Y-46.736
X118.58Y-49.276
X118.58Y-51.816
X118.58Y-54.356
X118.58Y-56.896
X118.58Y-59.436
T4
X110.2Y-44.196
X110.2Y-46.736
X110.2Y-49.276
X110.2Y-51.816
X110.2Y-54.356
X110.2Y-56.896
X110.2Y-59.436
X113.96Y-77.01
X116.5Y-77.01
X119.04Y-77.01
X121.58Y-77.01
X125.44Y-44.196
X125.44Y-46.736
X125.44Y-49.276
X125.44Y-51.816
X125.44Y-54.356
X125.44Y-56.896
X125.44Y-59.436
T5
X22.08Y-37.78
X22.08Y-54.78
X22.08Y-71.78
X27.08Y-35.68
X27.08Y-52.68
X27.08Y-69.68
X32.08Y-37.78
X32.08Y-54.78
X32.08Y-71.78
X40.08Y-25.78
X40.08Y-42.754
X40.08Y-59.772
X45.08Y-23.68
X45.08Y-40.654
X45.08Y-57.672
X50.08Y-25.78
X50.08Y-42.754
X50.08Y-59.772
X58.08Y-18.78
X58.08Y-35.896
X58.08Y-52.914
X63.08Y-16.68
X63.08Y-33.796
X63.08Y-50.814
X68.08Y-18.78
X68.08Y-35.896
X68.08Y-52.914
X76.08Y-24.28
X76.08Y-41.23
X76.08Y-58.248
X81.08Y-22.18
X81.08Y-39.13
X81.08Y-56.148
X85.122Y-85.023
X86.08Y-24.28
X86.08Y-41.23
X86.08Y-58.248
X89.408Y-88.346
X94.06Y-43.77
X94.06Y-60.788
X94.08Y-26.78
X94.781Y-87.611
X99.06Y-41.67
X99.06Y-58.688
X99.08Y-24.68
X103.38Y-91.138
X104.06Y-43.77
X104.06Y-60.788
X104.08Y-26.78
X106.66Y-95.457
X112.04Y-96.138
T6
X116.286Y-65.576
X123.286Y-65.576
T7
X21.58Y-41.58
X21.58Y-58.58
X21.58Y-75.58
X32.58Y-41.58
X32.58Y-58.58
X32.58Y-75.58
X39.58Y-29.58
X39.58Y-46.554
X39.58Y-63.572
X50.58Y-29.58
X50.58Y-46.554
X50.58Y-63.572
X57.58Y-22.58
X57.58Y-39.696
X57.58Y-56.714
X68.58Y-22.58
X68.58Y-39.696
X68.58Y-56.714
X75.58Y-28.08
X75.58Y-45.03
X75.58Y-62.048
X85.623Y-81.223
X86.58Y-28.08
X86.58Y-45.03
X86.58Y-62.048
X93.56Y-47.57
X93.56Y-64.588
X93.58Y-30.58
X96.248Y-84.07
X104.56Y-47.57
X104.56Y-64.588
X104.58Y-30.58
X104.847Y-87.597
X114.373Y-93.097
T8
X27.08Y-41.58
X27.08Y-58.58
X27.08Y-75.58
X45.08Y-29.58
X45.08Y-46.554
X45.08Y-63.572
X63.08Y-22.58
X63.08Y-39.696
X63.08Y-56.714
X81.08Y-28.08
X81.08Y-45.03
X81.08Y-62.048
X90.935Y-82.647
X99.06Y-47.57
X99.06Y-64.588
X99.08Y-30.58
X109.61Y-90.347
T3
G00X113.366Y-67.846
M15
G01X113.766Y-67.846
M16
G05
G00X113.786Y-63.276
M15
G01X113.386Y-63.276
M16
G05
G00X114.466Y-63.246
M15
G01X114.866Y-63.246
M16
G05
G00X114.886Y-67.876
M15
G01X114.486Y-67.876
M16
G05
G00X118.466Y-63.246
M15
G01X118.866Y-63.246
M16
G05
G00X118.886Y-67.876
M15
G01X118.486Y-67.876
M16
G05
G00X121.466Y-63.246
M15
G01X121.866Y-63.246
M16
G05
G00X121.886Y-67.876
M15
G01X121.486Y-67.876
M16
G05
T0
M30
