G04 #@! TF.GenerationSoftware,KiCad,Pcbnew,(6.0.5)*
G04 #@! TF.CreationDate,2022-07-31T11:40:16+07:00*
G04 #@! TF.ProjectId,TrongDong34,54726f6e-6744-46f6-9e67-33342e6b6963,rev?*
G04 #@! TF.SameCoordinates,Original*
G04 #@! TF.FileFunction,Legend,Bot*
G04 #@! TF.FilePolarity,Positive*
%FSLAX46Y46*%
G04 Gerber Fmt 4.6, Leading zero omitted, Abs format (unit mm)*
G04 Created by KiCad (PCBNEW (6.0.5)) date 2022-07-31 11:40:16*
%MOMM*%
%LPD*%
G01*
G04 APERTURE LIST*
%ADD10C,0.150000*%
%ADD11C,0.120000*%
G04 APERTURE END LIST*
D10*
X121821904Y-64955380D02*
X121250476Y-64955380D01*
X121536190Y-65955380D02*
X121536190Y-64955380D01*
X120345714Y-65955380D02*
X120679047Y-65479190D01*
X120917142Y-65955380D02*
X120917142Y-64955380D01*
X120536190Y-64955380D01*
X120440952Y-65003000D01*
X120393333Y-65050619D01*
X120345714Y-65145857D01*
X120345714Y-65288714D01*
X120393333Y-65383952D01*
X120440952Y-65431571D01*
X120536190Y-65479190D01*
X120917142Y-65479190D01*
X119345714Y-65955380D02*
X119679047Y-65479190D01*
X119917142Y-65955380D02*
X119917142Y-64955380D01*
X119536190Y-64955380D01*
X119440952Y-65003000D01*
X119393333Y-65050619D01*
X119345714Y-65145857D01*
X119345714Y-65288714D01*
X119393333Y-65383952D01*
X119440952Y-65431571D01*
X119536190Y-65479190D01*
X119917142Y-65479190D01*
X118964761Y-65907761D02*
X118821904Y-65955380D01*
X118583809Y-65955380D01*
X118488571Y-65907761D01*
X118440952Y-65860142D01*
X118393333Y-65764904D01*
X118393333Y-65669666D01*
X118440952Y-65574428D01*
X118488571Y-65526809D01*
X118583809Y-65479190D01*
X118774285Y-65431571D01*
X118869523Y-65383952D01*
X118917142Y-65336333D01*
X118964761Y-65241095D01*
X118964761Y-65145857D01*
X118917142Y-65050619D01*
X118869523Y-65003000D01*
X118774285Y-64955380D01*
X118536190Y-64955380D01*
X118393333Y-65003000D01*
D11*
X96830000Y-36080000D02*
X100730000Y-36080000D01*
X96830000Y-34080000D02*
X96830000Y-36080000D01*
X96830000Y-34080000D02*
X100730000Y-34080000D01*
X42830000Y-50054000D02*
X42830000Y-52054000D01*
X42830000Y-52054000D02*
X46730000Y-52054000D01*
X42830000Y-50054000D02*
X46730000Y-50054000D01*
X24830000Y-45080000D02*
X24830000Y-47080000D01*
X24830000Y-47080000D02*
X28730000Y-47080000D01*
X24830000Y-45080000D02*
X28730000Y-45080000D01*
X113308557Y-88441025D02*
X109931058Y-86491025D01*
X114308557Y-86708975D02*
X110931058Y-84758975D01*
X113308557Y-88441025D02*
X114308557Y-86708975D01*
X60830000Y-26080000D02*
X64730000Y-26080000D01*
X60830000Y-26080000D02*
X60830000Y-28080000D01*
X60830000Y-28080000D02*
X64730000Y-28080000D01*
X78830000Y-67548000D02*
X82730000Y-67548000D01*
X78830000Y-65548000D02*
X82730000Y-65548000D01*
X78830000Y-65548000D02*
X78830000Y-67548000D01*
X96810000Y-68088000D02*
X96810000Y-70088000D01*
X96810000Y-70088000D02*
X100710000Y-70088000D01*
X96810000Y-68088000D02*
X100710000Y-68088000D01*
X24830000Y-79080000D02*
X28730000Y-79080000D01*
X24830000Y-81080000D02*
X28730000Y-81080000D01*
X24830000Y-79080000D02*
X24830000Y-81080000D01*
X96810000Y-53070000D02*
X100710000Y-53070000D01*
X96810000Y-51070000D02*
X96810000Y-53070000D01*
X96810000Y-51070000D02*
X100710000Y-51070000D01*
X60830000Y-60214000D02*
X64730000Y-60214000D01*
X60830000Y-60214000D02*
X60830000Y-62214000D01*
X60830000Y-62214000D02*
X64730000Y-62214000D01*
X24830000Y-62080000D02*
X28730000Y-62080000D01*
X24830000Y-62080000D02*
X24830000Y-64080000D01*
X24830000Y-64080000D02*
X28730000Y-64080000D01*
X78830000Y-33580000D02*
X82730000Y-33580000D01*
X78830000Y-31580000D02*
X78830000Y-33580000D01*
X78830000Y-31580000D02*
X82730000Y-31580000D01*
X94532152Y-77916417D02*
X90765041Y-76907023D01*
X94014514Y-79848269D02*
X94532152Y-77916417D01*
X94014514Y-79848269D02*
X90247403Y-78838874D01*
X42830000Y-33080000D02*
X42830000Y-35080000D01*
X42830000Y-35080000D02*
X46730000Y-35080000D01*
X42830000Y-33080000D02*
X46730000Y-33080000D01*
X42830000Y-67072000D02*
X46730000Y-67072000D01*
X42830000Y-69072000D02*
X46730000Y-69072000D01*
X42830000Y-67072000D02*
X42830000Y-69072000D01*
X78830000Y-48530000D02*
X78830000Y-50530000D01*
X78830000Y-48530000D02*
X82730000Y-48530000D01*
X78830000Y-50530000D02*
X82730000Y-50530000D01*
X60830000Y-43196000D02*
X64730000Y-43196000D01*
X60830000Y-43196000D02*
X60830000Y-45196000D01*
X60830000Y-45196000D02*
X64730000Y-45196000D01*
M02*
