G04 #@! TF.GenerationSoftware,KiCad,Pcbnew,(6.0.5)*
G04 #@! TF.CreationDate,2022-07-31T11:40:16+07:00*
G04 #@! TF.ProjectId,TrongDong34,54726f6e-6744-46f6-9e67-33342e6b6963,rev?*
G04 #@! TF.SameCoordinates,Original*
G04 #@! TF.FileFunction,Soldermask,Bot*
G04 #@! TF.FilePolarity,Negative*
%FSLAX46Y46*%
G04 Gerber Fmt 4.6, Leading zero omitted, Abs format (unit mm)*
G04 Created by KiCad (PCBNEW (6.0.5)) date 2022-07-31 11:40:16*
%MOMM*%
%LPD*%
G01*
G04 APERTURE LIST*
G04 Aperture macros list*
%AMRotRect*
0 Rectangle, with rotation*
0 The origin of the aperture is its center*
0 $1 length*
0 $2 width*
0 $3 Rotation angle, in degrees counterclockwise*
0 Add horizontal line*
21,1,$1,$2,0,0,$3*%
%AMFreePoly0*
4,1,6,0.600000,0.200000,0.000000,-0.400000,-0.600000,0.200000,-0.600000,0.400000,0.600000,0.400000,0.600000,0.200000,0.600000,0.200000,$1*%
%AMFreePoly1*
4,1,6,0.600000,-0.250000,-0.600000,-0.250000,-0.600000,1.000000,0.000000,0.400000,0.600000,1.000000,0.600000,-0.250000,0.600000,-0.250000,$1*%
G04 Aperture macros list end*
%ADD10C,0.100000*%
%ADD11C,0.250000*%
%ADD12C,1.700000*%
%ADD13C,3.400000*%
%ADD14C,2.000000*%
%ADD15R,0.900000X1.200000*%
%ADD16RotRect,0.900000X1.200000X150.000000*%
%ADD17FreePoly0,180.000000*%
%ADD18FreePoly1,180.000000*%
%ADD19R,1.700000X1.700000*%
%ADD20O,1.700000X1.700000*%
%ADD21FreePoly0,270.000000*%
%ADD22FreePoly0,90.000000*%
%ADD23FreePoly1,270.000000*%
%ADD24O,2.750000X1.800000*%
%ADD25FreePoly1,90.000000*%
%ADD26C,0.800000*%
%ADD27O,2.000000X1.600000*%
%ADD28RotRect,0.900000X1.200000X165.000000*%
G04 APERTURE END LIST*
G36*
X117060000Y-75550000D02*
G01*
X116044000Y-75550000D01*
X116044000Y-74534000D01*
X117060000Y-74534000D01*
X117060000Y-75550000D01*
G37*
D10*
X117060000Y-75550000D02*
X116044000Y-75550000D01*
X116044000Y-74534000D01*
X117060000Y-74534000D01*
X117060000Y-75550000D01*
G36*
X119600000Y-75550000D02*
G01*
X118584000Y-75550000D01*
X118584000Y-74534000D01*
X119600000Y-74534000D01*
X119600000Y-75550000D01*
G37*
X119600000Y-75550000D02*
X118584000Y-75550000D01*
X118584000Y-74534000D01*
X119600000Y-74534000D01*
X119600000Y-75550000D01*
G36*
X122140000Y-75550000D02*
G01*
X121124000Y-75550000D01*
X121124000Y-74534000D01*
X122140000Y-74534000D01*
X122140000Y-75550000D01*
G37*
X122140000Y-75550000D02*
X121124000Y-75550000D01*
X121124000Y-74534000D01*
X122140000Y-74534000D01*
X122140000Y-75550000D01*
G36*
X114520000Y-75550000D02*
G01*
X113504000Y-75550000D01*
X113504000Y-74534000D01*
X114520000Y-74534000D01*
X114520000Y-75550000D01*
G37*
X114520000Y-75550000D02*
X113504000Y-75550000D01*
X113504000Y-74534000D01*
X114520000Y-74534000D01*
X114520000Y-75550000D01*
D11*
X118711000Y-49276000D02*
G75*
G03*
X118711000Y-49276000I-125000J0D01*
G01*
X117187000Y-56896000D02*
G75*
G03*
X117187000Y-56896000I-125000J0D01*
G01*
X117187000Y-59436000D02*
G75*
G03*
X117187000Y-59436000I-125000J0D01*
G01*
X118711000Y-54356000D02*
G75*
G03*
X118711000Y-54356000I-125000J0D01*
G01*
X117187000Y-44196000D02*
G75*
G03*
X117187000Y-44196000I-125000J0D01*
G01*
X117187000Y-46736000D02*
G75*
G03*
X117187000Y-46736000I-125000J0D01*
G01*
X118711000Y-59436000D02*
G75*
G03*
X118711000Y-59436000I-125000J0D01*
G01*
X117187000Y-51816000D02*
G75*
G03*
X117187000Y-51816000I-125000J0D01*
G01*
X118711000Y-56896000D02*
G75*
G03*
X118711000Y-56896000I-125000J0D01*
G01*
X117187000Y-49276000D02*
G75*
G03*
X117187000Y-49276000I-125000J0D01*
G01*
X118711000Y-44196000D02*
G75*
G03*
X118711000Y-44196000I-125000J0D01*
G01*
X117187000Y-54356000D02*
G75*
G03*
X117187000Y-54356000I-125000J0D01*
G01*
X118711000Y-46736000D02*
G75*
G03*
X118711000Y-46736000I-125000J0D01*
G01*
X118711000Y-51816000D02*
G75*
G03*
X118711000Y-51816000I-125000J0D01*
G01*
G36*
X112744000Y-52324000D02*
G01*
X111728000Y-52324000D01*
X111728000Y-51308000D01*
X112744000Y-51308000D01*
X112744000Y-52324000D01*
G37*
D10*
X112744000Y-52324000D02*
X111728000Y-52324000D01*
X111728000Y-51308000D01*
X112744000Y-51308000D01*
X112744000Y-52324000D01*
G36*
X123920000Y-44704000D02*
G01*
X122904000Y-44704000D01*
X122904000Y-43688000D01*
X123920000Y-43688000D01*
X123920000Y-44704000D01*
G37*
X123920000Y-44704000D02*
X122904000Y-44704000D01*
X122904000Y-43688000D01*
X123920000Y-43688000D01*
X123920000Y-44704000D01*
G36*
X112744000Y-49784000D02*
G01*
X111728000Y-49784000D01*
X111728000Y-48768000D01*
X112744000Y-48768000D01*
X112744000Y-49784000D01*
G37*
X112744000Y-49784000D02*
X111728000Y-49784000D01*
X111728000Y-48768000D01*
X112744000Y-48768000D01*
X112744000Y-49784000D01*
G36*
X123920000Y-47244000D02*
G01*
X122904000Y-47244000D01*
X122904000Y-46228000D01*
X123920000Y-46228000D01*
X123920000Y-47244000D01*
G37*
X123920000Y-47244000D02*
X122904000Y-47244000D01*
X122904000Y-46228000D01*
X123920000Y-46228000D01*
X123920000Y-47244000D01*
G36*
X112744000Y-44704000D02*
G01*
X111728000Y-44704000D01*
X111728000Y-43688000D01*
X112744000Y-43688000D01*
X112744000Y-44704000D01*
G37*
X112744000Y-44704000D02*
X111728000Y-44704000D01*
X111728000Y-43688000D01*
X112744000Y-43688000D01*
X112744000Y-44704000D01*
G36*
X112744000Y-54864000D02*
G01*
X111728000Y-54864000D01*
X111728000Y-53848000D01*
X112744000Y-53848000D01*
X112744000Y-54864000D01*
G37*
X112744000Y-54864000D02*
X111728000Y-54864000D01*
X111728000Y-53848000D01*
X112744000Y-53848000D01*
X112744000Y-54864000D01*
G36*
X123920000Y-57404000D02*
G01*
X122904000Y-57404000D01*
X122904000Y-56388000D01*
X123920000Y-56388000D01*
X123920000Y-57404000D01*
G37*
X123920000Y-57404000D02*
X122904000Y-57404000D01*
X122904000Y-56388000D01*
X123920000Y-56388000D01*
X123920000Y-57404000D01*
G36*
X123920000Y-59944000D02*
G01*
X122904000Y-59944000D01*
X122904000Y-58928000D01*
X123920000Y-58928000D01*
X123920000Y-59944000D01*
G37*
X123920000Y-59944000D02*
X122904000Y-59944000D01*
X122904000Y-58928000D01*
X123920000Y-58928000D01*
X123920000Y-59944000D01*
G36*
X112744000Y-59944000D02*
G01*
X111728000Y-59944000D01*
X111728000Y-58928000D01*
X112744000Y-58928000D01*
X112744000Y-59944000D01*
G37*
X112744000Y-59944000D02*
X111728000Y-59944000D01*
X111728000Y-58928000D01*
X112744000Y-58928000D01*
X112744000Y-59944000D01*
G36*
X123920000Y-52324000D02*
G01*
X122904000Y-52324000D01*
X122904000Y-51308000D01*
X123920000Y-51308000D01*
X123920000Y-52324000D01*
G37*
X123920000Y-52324000D02*
X122904000Y-52324000D01*
X122904000Y-51308000D01*
X123920000Y-51308000D01*
X123920000Y-52324000D01*
G36*
X112744000Y-47244000D02*
G01*
X111728000Y-47244000D01*
X111728000Y-46228000D01*
X112744000Y-46228000D01*
X112744000Y-47244000D01*
G37*
X112744000Y-47244000D02*
X111728000Y-47244000D01*
X111728000Y-46228000D01*
X112744000Y-46228000D01*
X112744000Y-47244000D01*
G36*
X123920000Y-49784000D02*
G01*
X122904000Y-49784000D01*
X122904000Y-48768000D01*
X123920000Y-48768000D01*
X123920000Y-49784000D01*
G37*
X123920000Y-49784000D02*
X122904000Y-49784000D01*
X122904000Y-48768000D01*
X123920000Y-48768000D01*
X123920000Y-49784000D01*
G36*
X123920000Y-54864000D02*
G01*
X122904000Y-54864000D01*
X122904000Y-53848000D01*
X123920000Y-53848000D01*
X123920000Y-54864000D01*
G37*
X123920000Y-54864000D02*
X122904000Y-54864000D01*
X122904000Y-53848000D01*
X123920000Y-53848000D01*
X123920000Y-54864000D01*
G36*
X112744000Y-57404000D02*
G01*
X111728000Y-57404000D01*
X111728000Y-56388000D01*
X112744000Y-56388000D01*
X112744000Y-57404000D01*
G37*
X112744000Y-57404000D02*
X111728000Y-57404000D01*
X111728000Y-56388000D01*
X112744000Y-56388000D01*
X112744000Y-57404000D01*
D12*
X104580000Y-30580000D03*
X93580000Y-30580000D03*
D13*
X99080000Y-30580000D03*
D14*
X99080000Y-24680000D03*
D15*
X97430000Y-35080000D03*
D14*
X104080000Y-26780000D03*
D15*
X100730000Y-35080000D03*
D13*
X45080000Y-46554000D03*
D12*
X39580000Y-46554000D03*
X50580000Y-46554000D03*
D14*
X45080000Y-40654000D03*
D15*
X43430000Y-51054000D03*
D14*
X50080000Y-42754000D03*
D15*
X46730000Y-51054000D03*
D12*
X21580000Y-41580000D03*
D13*
X27080000Y-41580000D03*
D12*
X32580000Y-41580000D03*
D14*
X27080000Y-35680000D03*
D15*
X25430000Y-46080000D03*
D14*
X32080000Y-37780000D03*
D15*
X28730000Y-46080000D03*
D12*
X104846860Y-87597114D03*
D13*
X109610000Y-90347114D03*
D12*
X114373140Y-93097114D03*
D14*
X106660000Y-95456664D03*
D16*
X113288942Y-87275000D03*
D14*
X103379873Y-91138011D03*
D16*
X110431058Y-85625000D03*
D12*
X57580000Y-22580000D03*
D13*
X63080000Y-22580000D03*
D12*
X68580000Y-22580000D03*
D14*
X63080000Y-16680000D03*
D15*
X61430000Y-27080000D03*
D14*
X68080000Y-18780000D03*
D15*
X64730000Y-27080000D03*
D17*
X114012000Y-75296000D03*
X116552000Y-75296000D03*
X121632000Y-75296000D03*
X119092000Y-75296000D03*
D18*
X114012000Y-74280000D03*
D19*
X121580000Y-77010000D03*
D18*
X116552000Y-74280000D03*
D20*
X119040000Y-77010000D03*
X116500000Y-77010000D03*
D18*
X119092000Y-74280000D03*
X121632000Y-74280000D03*
D20*
X113960000Y-77010000D03*
D12*
X86580000Y-62048000D03*
X75580000Y-62048000D03*
D13*
X81080000Y-62048000D03*
D14*
X81080000Y-56148000D03*
D15*
X79430000Y-66548000D03*
D14*
X86080000Y-58248000D03*
D15*
X82730000Y-66548000D03*
D21*
X123660000Y-51816000D03*
D22*
X111976000Y-59436000D03*
X111976000Y-56896000D03*
D21*
X123660000Y-44196000D03*
D22*
X111976000Y-54356000D03*
D21*
X123660000Y-59436000D03*
D22*
X111976000Y-44196000D03*
X111976000Y-49276000D03*
D21*
X123660000Y-49276000D03*
X123660000Y-46736000D03*
D22*
X111976000Y-46736000D03*
D21*
X123660000Y-54356000D03*
X123660000Y-56896000D03*
D22*
X111976000Y-51816000D03*
D23*
X122644000Y-44196000D03*
D24*
X109725000Y-44196000D03*
D23*
X122644000Y-46736000D03*
D24*
X109725000Y-46736000D03*
D23*
X122644000Y-49276000D03*
D24*
X109725000Y-49276000D03*
X109725000Y-51816000D03*
D23*
X122644000Y-51816000D03*
D24*
X109725000Y-54356000D03*
D23*
X122644000Y-54356000D03*
D24*
X109725000Y-56896000D03*
D23*
X122644000Y-56896000D03*
D24*
X109725000Y-59436000D03*
D23*
X122644000Y-59436000D03*
D25*
X112992000Y-59436000D03*
D24*
X125915000Y-59436000D03*
D25*
X112992000Y-56896000D03*
D24*
X125915000Y-56896000D03*
D25*
X112992000Y-54356000D03*
D24*
X125915000Y-54356000D03*
D25*
X112992000Y-51816000D03*
D24*
X125915000Y-51816000D03*
D25*
X112992000Y-49276000D03*
D24*
X125915000Y-49276000D03*
D25*
X112992000Y-46736000D03*
D24*
X125915000Y-46736000D03*
X125915000Y-44196000D03*
D25*
X112992000Y-44196000D03*
D12*
X93560000Y-64588000D03*
X104560000Y-64588000D03*
D13*
X99060000Y-64588000D03*
D14*
X99060000Y-58688000D03*
D15*
X97410000Y-69088000D03*
D14*
X104060000Y-60788000D03*
D15*
X100710000Y-69088000D03*
D12*
X32580000Y-75580000D03*
D13*
X27080000Y-75580000D03*
D12*
X21580000Y-75580000D03*
D14*
X27080000Y-69680000D03*
D15*
X25430000Y-80080000D03*
X28730000Y-80080000D03*
D14*
X32080000Y-71780000D03*
D13*
X99060000Y-47570000D03*
D12*
X93560000Y-47570000D03*
X104560000Y-47570000D03*
D14*
X99060000Y-41670000D03*
D15*
X97410000Y-52070000D03*
D14*
X104060000Y-43770000D03*
D15*
X100710000Y-52070000D03*
D26*
X116286000Y-65576000D03*
X123286000Y-65576000D03*
D27*
X118666000Y-63246000D03*
X118686000Y-67876000D03*
X121666000Y-63246000D03*
X121686000Y-67876000D03*
X113566000Y-67846000D03*
X113586000Y-63276000D03*
X114686000Y-67876000D03*
X114666000Y-63246000D03*
D12*
X68580000Y-56714000D03*
X57580000Y-56714000D03*
D13*
X63080000Y-56714000D03*
D14*
X63080000Y-50814000D03*
D15*
X61430000Y-61214000D03*
X64730000Y-61214000D03*
D14*
X68080000Y-52914000D03*
D12*
X32580000Y-58580000D03*
X21580000Y-58580000D03*
D13*
X27080000Y-58580000D03*
D14*
X27080000Y-52680000D03*
D15*
X25430000Y-63080000D03*
X28730000Y-63080000D03*
D14*
X32080000Y-54780000D03*
D13*
X81080000Y-28080000D03*
D12*
X75580000Y-28080000D03*
X86580000Y-28080000D03*
D14*
X81080000Y-22180000D03*
D15*
X79430000Y-32580000D03*
D14*
X86080000Y-24280000D03*
D15*
X82730000Y-32580000D03*
D12*
X85622722Y-81223161D03*
D13*
X90935314Y-82646666D03*
D12*
X96247906Y-84070171D03*
D14*
X89408282Y-88345629D03*
D28*
X93693778Y-78727051D03*
X90506222Y-77872949D03*
D14*
X85122173Y-85023089D03*
D12*
X39580000Y-29580000D03*
D13*
X45080000Y-29580000D03*
D12*
X50580000Y-29580000D03*
D14*
X45080000Y-23680000D03*
D15*
X43430000Y-34080000D03*
D14*
X50080000Y-25780000D03*
D15*
X46730000Y-34080000D03*
D13*
X45080000Y-63572000D03*
D12*
X50580000Y-63572000D03*
X39580000Y-63572000D03*
D14*
X45080000Y-57672000D03*
D15*
X43430000Y-68072000D03*
D14*
X50080000Y-59772000D03*
D15*
X46730000Y-68072000D03*
D13*
X81080000Y-45030000D03*
D12*
X86580000Y-45030000D03*
X75580000Y-45030000D03*
D14*
X81080000Y-39130000D03*
D15*
X79430000Y-49530000D03*
X82730000Y-49530000D03*
D14*
X86080000Y-41230000D03*
D13*
X63080000Y-39696000D03*
D12*
X68580000Y-39696000D03*
X57580000Y-39696000D03*
D14*
X63080000Y-33796000D03*
D15*
X61430000Y-44196000D03*
X64730000Y-44196000D03*
D14*
X68080000Y-35896000D03*
M02*
